<?xml version="1.0" standalone="no"?>
<!DOCTYPE svg PUBLIC "-//W3C//DTD SVG 20010904//EN"
 "http://www.w3.org/TR/2001/REC-SVG-20010904/DTD/svg10.dtd">
<svg version="1.0" xmlns="http://www.w3.org/2000/svg"
 width="350.000000pt" height="200.000000pt" viewBox="0 0 350.000000 200.000000"
 preserveAspectRatio="xMidYMid meet">

<g transform="translate(0.000000,200.000000) scale(0.100000,-0.100000)"
fill="#000000" stroke="none">
<path d="M651 1236 c-44 -16 -81 -60 -80 -94 1 -25 2 -25 9 5 4 18 13 40 20
48 18 21 76 35 109 25 86 -24 96 -50 96 -247 0 -84 3 -153 8 -153 4 0 7 66 7
147 0 85 4 143 9 138 5 -6 42 -72 82 -147 40 -76 78 -138 84 -138 6 0 46 72
90 160 44 88 83 160 88 160 4 0 7 -72 5 -160 l-3 -160 45 0 45 0 0 185 0 186
-45 -3 -45 -3 -70 -137 c-38 -76 -73 -138 -77 -138 -3 0 -36 57 -73 128 -37
70 -77 138 -88 151 -49 54 -142 74 -216 47z"/>
<path d="M1702 1190 c30 -45 44 -58 52 -50 18 18 -36 104 -68 108 -25 3 -25 3
16 -58z"/>
<path d="M1827 1243 c-4 -3 -7 -33 -7 -65 0 -51 2 -58 20 -58 18 0 20 7 20 65
0 47 -4 65 -13 65 -8 0 -17 -3 -20 -7z"/>
<path d="M1906 1202 c-3 -6 -1 -14 5 -17 15 -10 25 3 12 16 -7 7 -13 7 -17 1z"/>
<path d="M1970 1170 c0 -38 1 -40 21 -30 25 14 23 63 -3 68 -15 3 -18 -4 -18
-38z"/>
<path d="M2050 1195 c0 -9 6 -12 15 -9 8 4 15 10 15 15 0 5 -7 9 -15 9 -8 0
-15 -7 -15 -15z"/>
<path d="M2120 1200 c0 -5 7 -10 15 -10 8 0 15 5 15 10 0 6 -7 10 -15 10 -8 0
-15 -4 -15 -10z"/>
<path d="M2190 1190 c-13 -24 -5 -56 15 -64 11 -4 14 3 13 28 -1 18 2 38 6 44
4 7 1 12 -8 12 -8 0 -20 -9 -26 -20z"/>
<path d="M2275 1165 c0 -47 9 -53 32 -19 11 17 10 23 -3 42 -22 32 -29 27 -29
-23z"/>
<path d="M2350 1191 c-5 -11 -10 -24 -10 -30 0 -20 32 -41 63 -41 l32 0 -25
13 c-19 10 -25 21 -25 45 0 36 -19 43 -35 13z"/>
<path d="M2427 1203 c-12 -11 -8 -23 8 -23 8 0 15 7 15 15 0 16 -12 20 -23 8z"/>
<path d="M672 1168 c-20 -20 -15 -40 7 -28 28 14 38 13 61 -10 l20 -20 0 23
c0 13 -5 28 -12 35 -15 15 -61 15 -76 0z"/>
<path d="M1598 1149 c-23 -24 -23 -29 2 -29 22 0 38 26 24 39 -5 4 -17 0 -26
-10z"/>
<path d="M2057 1163 c-13 -12 -7 -43 8 -43 9 0 15 9 15 25 0 24 -10 32 -23 18z"/>
<path d="M1902 1143 c5 -26 37 -29 35 -4 -1 13 -8 21 -20 21 -12 0 -17 -6 -15
-17z"/>
<path d="M2670 956 c0 -54 4 -75 14 -79 22 -9 26 2 26 80 0 66 -2 73 -20 73
-18 0 -20 -7 -20 -74z"/>
<path d="M2760 1006 c0 -9 7 -16 16 -16 17 0 14 22 -4 28 -7 2 -12 -3 -12 -12z"/>
<path d="M2835 1011 c-9 -15 -4 -154 7 -173 20 -39 28 -15 28 82 0 80 -3 100
-14 100 -8 0 -17 -4 -21 -9z"/>
<path d="M1660 945 c0 -58 2 -65 20 -65 18 0 20 7 20 65 0 58 -2 65 -20 65
-18 0 -20 -7 -20 -65z"/>
<path d="M1764 988 c18 -26 20 -61 6 -89 -8 -14 -7 -19 3 -19 34 0 60 65 39
96 -7 11 -46 34 -57 34 -3 0 1 -10 9 -22z"/>
<path d="M2115 985 c-14 -13 -25 -30 -25 -38 0 -22 37 -64 61 -70 19 -5 20 -4
5 12 -19 21 -21 92 -4 109 9 9 9 12 0 12 -7 0 -24 -11 -37 -25z"/>
<path d="M2216 985 c-9 -24 -8 -25 15 -25 14 0 19 5 17 17 -4 23 -24 27 -32 8z"/>
<path d="M1577 983 c-12 -11 -8 -23 7 -23 8 0 16 7 20 15 5 15 -14 21 -27 8z"/>
<path d="M1860 926 c0 -25 2 -46 4 -46 2 0 12 -3 21 -6 14 -6 16 0 13 42 -2
37 -7 50 -20 52 -15 3 -18 -4 -18 -42z"/>
<path d="M1947 963 c-4 -3 -7 -24 -7 -45 0 -31 3 -38 20 -38 17 0 20 7 20 45
0 43 -14 58 -33 38z"/>
<path d="M2294 956 c-10 -27 1 -71 19 -74 14 -3 17 4 17 42 0 35 -4 46 -15 46
-9 0 -18 -6 -21 -14z"/>
<path d="M2372 959 c2 -6 8 -10 13 -10 5 0 11 4 13 10 2 6 -4 11 -13 11 -9 0
-15 -5 -13 -11z"/>
<path d="M2448 959 c-40 -23 -6 -89 46 -89 17 0 15 3 -9 25 -20 20 -25 32 -21
50 7 28 7 28 -16 14z"/>
<path d="M2512 953 c2 -9 9 -18 16 -21 18 -6 15 25 -4 32 -11 4 -14 1 -12 -11z"/>
<path d="M2595 954 c-21 -22 -16 -53 13 -72 24 -15 24 -15 17 21 -5 24 -3 42
5 52 18 22 -13 20 -35 -1z"/>
<path d="M2759 966 c-3 -3 -3 -23 -1 -45 6 -59 32 -56 32 4 0 31 -4 45 -13 45
-8 0 -16 -2 -18 -4z"/>
<path d="M2906 845 c4 -9 11 -14 16 -13 15 5 11 23 -6 26 -11 2 -14 -2 -10
-13z"/>
</g>
</svg>
