<?xml version="1.0" standalone="no"?>
<!DOCTYPE svg PUBLIC "-//W3C//DTD SVG 20010904//EN"
 "http://www.w3.org/TR/2001/REC-SVG-20010904/DTD/svg10.dtd">
<svg version="1.0" xmlns="http://www.w3.org/2000/svg"
 width="350.000000pt" height="200.000000pt" viewBox="0 0 350.000000 200.000000"
 preserveAspectRatio="xMidYMid meet">
<metadata>
Created by potrace 1.16, written by Peter Selinger 2001-2019
</metadata>
<g transform="translate(0.000000,200.000000) scale(0.100000,-0.100000)"
fill="#000000" stroke="none">
<path d="M651 1236 c-44 -16 -81 -60 -80 -94 1 -25 2 -25 9 5 4 18 13 40 20
48 18 21 76 35 109 25 86 -24 96 -50 96 -247 0 -84 3 -153 8 -153 4 0 7 66 7
147 0 85 4 143 9 138 5 -6 42 -72 82 -147 40 -76 78 -138 84 -138 6 0 46 72
90 160 44 88 83 160 88 160 4 0 7 -72 5 -160 l-3 -160 45 0 45 0 0 185 0 186
-45 -3 -45 -3 -70 -137 c-38 -76 -73 -138 -77 -138 -3 0 -36 57 -73 128 -37
70 -77 138 -88 151 -49 54 -142 74 -216 47z"/>
</g>
</svg>
