<?xml version="1.0" standalone="no"?>
<!DOCTYPE svg PUBLIC "-//W3C//DTD SVG 20010904//EN"
 "http://www.w3.org/TR/2001/REC-SVG-20010904/DTD/svg10.dtd">
<svg version="1.0" xmlns="http://www.w3.org/2000/svg"
 width="300.000000pt" height="231.000000pt" viewBox="0 0 300.000000 231.000000"
 preserveAspectRatio="xMidYMid meet">
<metadata>
Created by potrace 1.10, written by Peter Selinger 2001-2011
</metadata>
<g transform="translate(0.000000,231.000000) scale(0.100000,-0.100000)"
fill="#000000" stroke="none">
<path d="M5 1155 c0 -638 1 -900 2 -583 2 317 2 839 0 1160 -1 321 -2 61 -2
-577z"/>
<path d="M237 2293 c90 -2 236 -2 325 0 90 1 17 3 -162 3 -179 0 -252 -2 -163
-3z"/>
<path d="M1238 2293 c23 -2 61 -2 85 0 23 2 4 4 -43 4 -47 0 -66 -2 -42 -4z"/>
<path d="M1897 2293 c189 -2 497 -2 686 0 188 1 34 2 -343 2 -377 0 -531 -1
-343 -2z"/>
<path d="M570 1439 c-99 -40 -115 -179 -24 -209 61 -21 125 34 110 94 -14 55
-96 56 -96 1 0 -28 3 -30 29 -13 24 14 51 4 51 -20 0 -27 -32 -52 -68 -52 -70
0 -94 98 -37 148 54 46 124 16 144 -62 14 -56 15 -341 1 -367 -10 -17 -7 -19
22 -19 18 0 28 4 22 8 -13 8 -25 334 -12 326 4 -3 8 -9 8 -14 0 -24 124 -320
133 -320 7 0 44 87 84 193 l72 192 1 -180 c0 -128 -4 -185 -12 -193 -9 -9 2
-12 53 -12 37 0 59 4 51 8 -10 7 -12 56 -10 220 l3 212 -45 0 -45 0 -45 -121
c-25 -67 -53 -142 -62 -168 l-16 -46 -12 30 c-72 190 -116 291 -138 317 -43
51 -106 69 -162 47z m177 -144 c0 -7 -7 -11 -14 -8 -8 3 -12 8 -9 11 3 2 -1
14 -9 26 -8 11 -15 25 -15 31 1 15 47 -44 47 -60z"/>
<path d="M1190 1195 c0 -163 4 -255 10 -255 6 0 10 92 10 255 0 163 -4 255
-10 255 -6 0 -10 -92 -10 -255z"/>
<path d="M1350 1435 c-18 -22 -1 -50 31 -50 17 0 25 6 27 23 3 17 -2 22 -17
22 -13 0 -21 -6 -21 -16 0 -10 6 -14 15 -10 8 3 15 1 15 -5 0 -6 -8 -9 -17 -7
-10 2 -18 12 -18 23 0 16 7 20 30 20 26 0 33 -7 60 -62 17 -34 33 -65 37 -68
4 -4 18 16 32 44 15 28 29 51 32 51 4 0 4 -23 2 -51 -5 -46 -3 -51 19 -60 13
-5 25 -9 26 -9 1 0 2 38 2 85 0 81 -1 85 -22 85 -13 0 -23 -4 -23 -9 0 -5 -11
-28 -24 -52 l-25 -42 -23 49 c-23 48 -24 49 -74 52 -37 2 -54 -1 -64 -13z"/>
<path d="M1643 1403 c-18 -7 -16 -43 1 -43 20 0 29 17 14 23 -7 2 -10 8 -6 12
4 4 14 5 23 2 22 -9 21 -97 -1 -97 -12 0 -15 7 -12 25 6 27 -10 33 -30 13 -16
-16 -15 -23 4 -42 21 -21 27 -20 62 8 24 21 28 31 24 58 -3 18 -10 36 -16 40
-12 9 -44 9 -63 1z"/>
<path d="M1756 1401 c-5 -8 -9 -49 -7 -83 1 -22 6 -28 24 -28 20 0 23 4 19 35
-5 38 -10 42 -32 23 -8 -7 -4 -1 9 15 22 25 60 39 46 18 -8 -14 9 -21 24 -11
27 16 4 37 -38 37 -23 0 -43 -2 -45 -6z"/>
<path d="M1881 1384 c-27 -34 -26 -50 4 -79 31 -32 50 -31 81 1 20 19 24 31
19 52 -13 55 -70 69 -104 26z m63 0 c19 -50 -11 -118 -33 -75 -14 25 -14 47
-1 72 13 23 26 24 34 3z"/>
<path d="M2032 1403 c-23 -9 -34 -54 -22 -84 14 -32 42 -42 76 -27 29 14 32
32 4 23 -40 -13 -68 43 -38 73 18 18 27 15 21 -8 -4 -15 0 -20 16 -20 23 0 28
19 9 38 -12 12 -43 15 -66 5z"/>
<path d="M1421 1349 c-1 -64 -15 -82 -58 -77 -25 3 -28 7 -28 38 0 29 4 36 24
38 16 3 22 0 18 -10 -2 -7 -10 -12 -16 -10 -6 1 -11 -7 -11 -19 0 -15 5 -20
23 -17 31 4 32 57 1 69 -47 17 -82 -42 -51 -85 19 -26 76 -24 99 4 19 23 21
45 8 95 -6 25 -8 20 -9 -26z"/>
<path d="M2295 1194 c-6 -2 -9 -39 -7 -90 3 -78 1 -85 -15 -82 -21 4 -31 62
-13 83 16 20 -4 26 -28 9 -15 -10 -22 -26 -22 -49 0 -45 20 -63 67 -59 21 2
44 3 52 3 11 1 11 4 1 16 -8 10 -11 41 -9 91 4 74 -1 89 -26 78z"/>
<path d="M2439 1183 c-12 -3 -15 -14 -13 -41 2 -20 3 -72 3 -114 1 -75 2 -78
28 -84 32 -8 57 6 61 35 3 16 -2 21 -17 21 -18 0 -20 -4 -15 -26 5 -20 3 -25
-7 -22 -11 4 -14 31 -16 118 -1 62 -3 113 -5 114 -2 1 -10 1 -19 -1z"/>
<path d="M1853 1172 c-28 -4 -63 -47 -63 -78 0 -53 39 -94 89 -94 20 0 73 39
54 40 -6 0 -15 -4 -18 -10 -9 -14 -48 -13 -63 2 -13 13 -16 85 -6 112 3 9 17
16 31 16 22 0 24 -3 18 -30 -6 -25 -4 -30 13 -30 22 0 34 22 26 44 -7 18 -51
33 -81 28z"/>
<path d="M2360 1160 c0 -15 5 -20 18 -18 9 2 17 10 17 18 0 8 -8 16 -17 18
-13 2 -18 -3 -18 -18z"/>
<path d="M1328 1159 c-46 -26 5 -104 51 -79 25 13 28 55 4 64 -9 4 -23 0 -32
-9 -13 -12 -13 -17 -2 -27 11 -10 14 -10 18 0 6 17 23 15 23 -2 0 -19 -21 -26
-42 -14 -28 14 -23 56 6 64 53 13 61 4 64 -73 l3 -71 35 -6 c72 -14 126 43
104 109 -6 19 -20 40 -30 45 -24 13 -180 12 -202 -1z m176 -21 c22 -32 20 -84
-4 -108 -12 -12 -25 -18 -30 -15 -6 4 -10 37 -10 76 0 75 14 90 44 47z"/>
<path d="M1600 1123 c-11 -3 -14 -15 -12 -53 2 -27 9 -54 16 -59 6 -5 31 -7
54 -4 l42 6 0 52 c0 57 -4 65 -28 58 -14 -3 -16 -14 -14 -54 3 -40 1 -49 -12
-49 -13 0 -16 11 -16 49 0 52 -5 60 -30 54z"/>
<path d="M1970 1123 c-12 -3 -14 -16 -12 -57 3 -46 7 -55 25 -58 20 -4 22 0
22 45 0 31 5 52 13 54 6 3 12 -2 12 -11 0 -21 19 -21 27 0 9 24 -13 41 -36 27
-10 -6 -22 -8 -27 -4 -5 4 -16 6 -24 4z"/>
<path d="M2102 1114 c-50 -35 -12 -128 45 -108 36 12 39 30 6 29 -20 0 -28 6
-33 25 -7 29 -2 60 11 60 17 0 22 -32 8 -41 -10 -6 -4 -9 19 -9 37 0 40 12 12
40 -24 24 -38 25 -68 4z"/>
<path d="M2365 1124 c-6 -2 -8 -28 -7 -59 3 -47 7 -55 24 -55 14 0 18 5 14 16
-3 9 -6 36 -6 60 0 42 -3 47 -25 38z"/>
</g>
</svg>
